<?xml version="1.0" encoding="UTF-8" standalone="no"?><!DOCTYPE svg PUBLIC "-//W3C//DTD SVG 1.1//EN" "http://www.w3.org/Graphics/SVG/1.1/DTD/svg11.dtd"><svg width="100%" height="100%" viewBox="0 0 733 245" version="1.1" xmlns="http://www.w3.org/2000/svg" xmlns:xlink="http://www.w3.org/1999/xlink" xml:space="preserve" xmlns:serif="http://www.serif.com/" style="fill-rule:evenodd;clip-rule:evenodd;stroke-miterlimit:1.5;"><rect id="logo-krzywe--TŁO-białe--TEKST-żółty" serif:id="logo krzywe, TŁO białe, TEKST żółty" x="0.188" y="0.925" width="732.283" height="243.15" style="fill:none;"/><clipPath id="_clip1"><rect x="0.188" y="0.925" width="732.283" height="243.15"/></clipPath><g clip-path="url(#_clip1)"><g><g><path d="M55.241,171.754l0,-12.312l31.974,-0l0,-67.256l-31.974,0l0,-12.312l46.675,0l-0,79.568l31.239,-0l-0,12.312l-77.914,-0Zm27.013,-117.973c-0,-3.308 1.102,-6.156 3.307,-8.545c2.205,-2.389 5.023,-3.583 8.453,-3.583c3.553,-0 6.524,1.194 8.912,3.583c2.389,2.389 3.584,5.237 3.584,8.545c-0,3.185 -1.195,5.88 -3.584,8.085c-2.388,2.205 -5.359,3.308 -8.912,3.308c-3.43,-0 -6.248,-1.103 -8.453,-3.308c-2.205,-2.205 -3.307,-4.9 -3.307,-8.085Z" style="fill:#ffba49;fill-rule:nonzero;"/><path d="M151.898,79.874l21.867,0l0,-18.192l14.333,-4.042l0,22.234l49.064,0l-0,12.312l-49.064,0l0,43.367c0,8.943 2.175,15.558 6.524,19.846c4.349,4.288 10.566,6.432 18.651,6.432c5.513,-0 10.321,-1.042 14.425,-3.124c4.104,-2.083 7.81,-4.349 11.118,-6.799l4.777,10.841c-4.287,3.431 -9.402,6.187 -15.343,8.27c-5.942,2.082 -12.037,3.123 -18.284,3.123c-4.901,0 -9.525,-0.704 -13.874,-2.113c-4.349,-1.409 -8.177,-3.583 -11.485,-6.523c-3.308,-2.94 -5.941,-6.707 -7.902,-11.301c-1.96,-4.594 -2.94,-10.076 -2.94,-16.447l0,-45.572l-21.867,0l0,-12.312Z" style="fill:#ffba49;fill-rule:nonzero;"/><rect x="280.161" y="112.032" width="62.845" height="13.598" style="fill:#ffba49;fill-rule:nonzero;"/><path d="M428.454,92.186l-44.469,0l-0,-12.312l59.17,0l-0,94.085c-0,12.373 -3.155,21.591 -9.464,27.655c-6.309,6.064 -15.037,9.096 -26.185,9.096c-3.308,0 -6.524,-0.428 -9.647,-1.286c-3.124,-0.857 -6.034,-1.868 -8.729,-3.032c-2.695,-1.164 -5.053,-2.358 -7.075,-3.583c-2.021,-1.225 -3.522,-2.205 -4.502,-2.94l6.064,-11.945c3.308,2.45 7.075,4.594 11.301,6.432c4.227,1.837 8.606,2.756 13.139,2.756c7.35,0 12.588,-2.297 15.711,-6.891c3.124,-4.594 4.686,-10.933 4.686,-19.019l0,-79.016Zm-7.718,-38.405c0,-3.308 1.103,-6.156 3.308,-8.545c2.205,-2.389 5.023,-3.583 8.453,-3.583c3.553,-0 6.523,1.194 8.912,3.583c2.389,2.389 3.584,5.237 3.584,8.545c-0,3.185 -1.195,5.88 -3.584,8.085c-2.389,2.205 -5.359,3.308 -8.912,3.308c-3.43,-0 -6.248,-1.103 -8.453,-3.308c-2.205,-2.205 -3.308,-4.9 -3.308,-8.085Z" style="fill:#ffba49;fill-rule:nonzero;"/><path d="M496.812,87.041c5.268,-3.063 11.21,-5.268 17.825,-6.615c6.615,-1.348 13.108,-2.022 19.478,-2.022c6.248,0 11.363,0.98 15.344,2.941c3.982,1.96 7.105,4.502 9.372,7.626c2.266,3.123 3.797,6.676 4.594,10.657c0.796,3.982 1.194,7.994 1.194,12.037c0,4.655 -0.122,9.616 -0.367,14.884c-0.245,5.268 -0.429,10.536 -0.552,15.803c0,6.126 0.368,11.945 1.103,17.457l12.312,0l-0,11.945l-24.44,-0l-1.654,-13.782l-0.919,-0c-0.735,1.102 -1.837,2.511 -3.307,4.226c-1.47,1.715 -3.4,3.4 -5.789,5.054c-2.389,1.653 -5.298,3.093 -8.728,4.318c-3.43,1.225 -7.473,1.837 -12.128,1.837c-9.066,0 -16.232,-2.327 -21.5,-6.982c-5.268,-4.656 -7.902,-11.026 -7.902,-19.111c0,-6.248 1.379,-11.454 4.135,-15.62c2.756,-4.165 6.707,-7.35 11.852,-9.555c5.146,-2.205 11.363,-3.492 18.652,-3.859c7.289,-0.368 15.466,0.122 24.532,1.47c0.612,-5.635 0.704,-10.321 0.275,-14.057c-0.429,-3.737 -1.409,-6.708 -2.94,-8.913c-1.531,-2.205 -3.675,-3.767 -6.432,-4.686c-2.756,-0.918 -6.155,-1.378 -10.198,-1.378c-5.513,0 -10.781,0.766 -15.803,2.297c-5.023,1.532 -9.494,3.093 -13.415,4.686l-4.594,-10.658Zm27.013,74.055c3.43,-0 6.615,-0.552 9.555,-1.654c2.94,-1.103 5.513,-2.512 7.718,-4.227c2.205,-1.715 4.043,-3.583 5.513,-5.604c1.47,-2.022 2.572,-3.951 3.308,-5.789l-0,-12.863c-6.371,-1.102 -12.251,-1.654 -17.641,-1.654c-5.391,0 -10.046,0.582 -13.966,1.746c-3.92,1.164 -6.983,2.971 -9.188,5.421c-2.205,2.45 -3.307,5.635 -3.307,9.555c-0,4.043 1.378,7.565 4.134,10.567c2.756,3.001 7.381,4.502 13.874,4.502Z" style="fill:#ffba49;fill-rule:nonzero;"/><path d="M644.37,157.604l6.983,0l22.786,-77.73l14.885,0l-25.543,82.508c-1.347,4.288 -2.726,9.157 -4.134,14.609c-1.409,5.451 -3.4,10.566 -5.973,15.344c-2.572,4.777 -6.064,8.82 -10.474,12.128c-4.41,3.307 -10.168,4.961 -17.273,4.961c-1.593,0 -3.277,-0.184 -5.053,-0.551c-1.777,-0.368 -3.522,-0.827 -5.238,-1.378c-1.715,-0.552 -3.307,-1.195 -4.777,-1.93c-1.47,-0.735 -2.573,-1.47 -3.308,-2.205l5.145,-13.231c0.735,0.613 1.746,1.226 3.032,1.838c1.287,0.613 2.695,1.133 4.227,1.562c1.531,0.429 3.032,0.796 4.502,1.103c1.47,0.306 2.695,0.459 3.675,0.459c9.188,-0 15.436,-7.779 18.743,-23.337l-12.311,-0l-38.59,-91.88l16.539,0l32.157,77.73Z" style="fill:#ffba49;fill-rule:nonzero;"/></g><path d="M11.999,160.464l-0,75.556l75.928,0.372" style="fill:none;stroke:#ffba49;stroke-width:12.28px;"/><path d="M720.66,84.536l0,-75.555l-75.928,-0.373" style="fill:none;stroke:#ffba49;stroke-width:12.33px;"/></g></g></svg>